<svg id="Layer_2" data-name="Layer 2" xmlns="http://www.w3.org/2000/svg" viewBox="0 0 64 65">
  <path fill="#17181b" d="M55.67,38.86a3.46,3.46,0,0,1-3.47.25c-1.26-.75-2-2.45-2-4.78V27.21c0-3.4-1.32-5.86-3.59-6.49-3.84-1.13-6.74,3.59-7.81,5.36L32,37V23.56c-.06-3.09-1.07-4.92-3-5.48-1.26-.38-3.15-.19-5,2.58L8.88,45A26.8,26.8,0,0,1,5.79,32.5,26.42,26.42,0,0,1,32,5.92,26.42,26.42,0,0,1,58.19,32.5v.13c.12,2.83-.76,5.1-2.52,6.23ZM64,32.5h0v-.13C63.92,14.55,49.56,0,32,0S0,14.55,0,32.5,14.36,65,32,65a31.45,31.45,0,0,0,21.72-8.69,2.91,2.91,0,0,0,.13-4.16A2.88,2.88,0,0,0,49.75,52l-.07.07a25.87,25.87,0,0,1-37.27-1.71L26.07,28.41V38.55c0,4.85,1.89,6.42,3.46,6.86s4,.13,6.55-4l7.5-12.15a6.79,6.79,0,0,1,.69-1v6.17c0,4.54,1.82,8.19,5,9.95A9.17,9.17,0,0,0,58.63,44C62.28,41.63,64.23,37.48,64,32.5Z"/>
</svg>
