<svg xmlns="http://www.w3.org/2000/svg" viewBox="0 0 450 340.4">
  <g id="ecodefi-circles">
    <ellipse cx="128.6" cy="170.2" rx="116.4" ry="157.5" fill="#212e3e" fill-opacity="0.5" stroke="#90c63e" stroke-miterlimit="10" stroke-width="24"/>
    <ellipse cx="347" cy="182" rx="90.9" ry="106.2" fill="#90c63e" fill-opacity="0.5" stroke="#212e3e" stroke-miterlimit="10" stroke-width="24"/>
    <g>
      <path d="M304.1,173V122.5h19.4a29.5,29.5,0,0,1,11,2.1A21.7,21.7,0,0,1,347.4,138a29.2,29.2,0,0,1,1.6,9.8,28.8,28.8,0,0,1-1.8,10.4,23.5,23.5,0,0,1-5.2,8,24.8,24.8,0,0,1-8,5.1,31.3,31.3,0,0,1-10.5,1.8Zm30.8-25.3a16.8,16.8,0,0,0-.8-5.4,10.9,10.9,0,0,0-2.2-4.1,9.5,9.5,0,0,0-3.6-2.7,11.5,11.5,0,0,0-4.8-1H318v26.4h5.5a11.2,11.2,0,0,0,4.8-1,10,10,0,0,0,3.6-2.8,11.3,11.3,0,0,0,2.2-4.2A15.3,15.3,0,0,0,334.9,147.7Z" fill="#212e3e"/>
      <path d="M372.7,173.7a22.1,22.1,0,0,1-8.8-1.5,17,17,0,0,1-6.4-4.2,16.2,16.2,0,0,1-4-6,18,18,0,0,1-1.3-7.2,20.5,20.5,0,0,1,1.3-7.7,18.4,18.4,0,0,1,3.9-6.4,20,20,0,0,1,6.4-4.3,25.7,25.7,0,0,1,17.7,0,20,20,0,0,1,6.4,4.3,17.6,17.6,0,0,1,3.9,6.2,21.1,21.1,0,0,1,1.4,7.4,17,17,0,0,1-.1,2.2c-.1.7-.2,1.4-.3,1.9H366.5a5.4,5.4,0,0,0,2.2,4.4,8.3,8.3,0,0,0,4.3,1.3,10,10,0,0,0,4.2-1,5.5,5.5,0,0,0,2.6-2.8l11.5,3.3a18.2,18.2,0,0,1-7,7.3A21.5,21.5,0,0,1,372.7,173.7Zm5.9-23.4a6.6,6.6,0,0,0-2-4.3,6.4,6.4,0,0,0-8.4,0,7.8,7.8,0,0,0-2,4.3Z" fill="#212e3e"/>
      <path d="M321.2,239.3V188.9h34.6V201H335.2v8.4h16.9v11.2H335.2v18.8Z" fill="#212e3e"/>
      <path d="M360.1,198.7V187.3h13.5v11.4Zm0,40.6V201.8h13.5v37.5Z" fill="#212e3e"/>
    </g>
    <g>
      <path d="M98.2,181.6v16.2H50.1V130.2H97.4v16.2H68.6v9.5H93.1v15H68.6v10.7Z" fill="#90c63e"/>
      <path d="M101.9,172.8a28,28,0,0,1,1.8-9.9,25,25,0,0,1,5.3-8.3,26.8,26.8,0,0,1,8.7-5.7,29.2,29.2,0,0,1,11.7-2.1,28.1,28.1,0,0,1,15.3,3.8,25.5,25.5,0,0,1,9.2,9.8l-17.6,5.4a8.1,8.1,0,0,0-6.9-3.8,7.9,7.9,0,0,0-6.3,2.9,13.5,13.5,0,0,0,0,15.8,7.9,7.9,0,0,0,6.3,2.9,7.8,7.8,0,0,0,6.9-3.7l17.6,5.3a24.1,24.1,0,0,1-9.2,9.8,27.2,27.2,0,0,1-15.3,3.7,30,30,0,0,1-11.8-2.1,24.9,24.9,0,0,1-13.9-14.1A26.9,26.9,0,0,1,101.9,172.8Z" fill="#90c63e"/>
      <path d="M183.8,198.7a30.2,30.2,0,0,1-11.9-2.1,26.1,26.1,0,0,1-8.6-5.8,24.8,24.8,0,0,1-5.2-8.3,29,29,0,0,1,0-19.7,23.4,23.4,0,0,1,5.2-8.2,26.1,26.1,0,0,1,8.6-5.8,33.4,33.4,0,0,1,23.7,0,25.1,25.1,0,0,1,8.6,5.8,23.7,23.7,0,0,1,5.3,8.2,29,29,0,0,1,0,19.7,24.9,24.9,0,0,1-13.9,14.1A30,30,0,0,1,183.8,198.7Zm-8.9-25.9a11.5,11.5,0,0,0,2.5,7.9,8.5,8.5,0,0,0,12,.7l.7-.7a13.7,13.7,0,0,0,0-15.9,8.5,8.5,0,0,0-12-.7l-.7.7a12.2,12.2,0,0,0-2.6,8Z" fill="#90c63e"/>
    </g>
  </g>
</svg>
