<svg xmlns="http://www.w3.org/2000/svg" viewBox="0 0 420.8 319.7">
  <g id="eyeeye">
    <g id="shaded_bits" data-name="shaded bits">
      <g id="shade_primary" data-name="shade primary">
        <path d="M184.6,67.7c12.6,17.1,21.3,38.4,25.3,61.6-79.7-10.6-144.2,1-176.6,9.3C36.5,111.7,45.7,87.1,60,67.7,77,44.7,99.1,32,122.3,32S167.6,44.7,184.6,67.7Z" fill="#91c73e"/>
        <path d="M322,89.9c27.5,0,51.1,20.1,61.3,48.9-49.3-9.5-95.3-4.6-122.7.3C270.8,110.2,294.5,89.9,322,89.9Z" fill="#91c73e"/>
      </g>
      <g id="shade_white" data-name="shade white">
        <path d="M361.2,167.7a249,249,0,0,1,27.5,5c-.9,43.6-30.5,78.7-66.7,78.7s-65.7-35-66.7-78.5a320.3,320.3,0,0,1,38.5-6,20.9,20.9,0,0,0-1.1,7c0,15.5,15.5,28.1,34.7,28.1s34.7-12.6,34.7-28.1A21.6,21.6,0,0,0,361.2,167.7Z" fill="#fff"/>
        <path d="M212.5,162c-.4,34.2-10.3,66.1-27.9,90.1s-39.1,35.6-62.3,35.6S77,275.1,60,252.1,34.5,202.4,32.4,172a407.5,407.5,0,0,1,67.3-12.4,26.7,26.7,0,0,0-2.4,10.9c0,17.4,17.5,31.5,39,31.5s39-14.1,39-31.5a26,26,0,0,0-3.3-12.6C185,158.6,198.5,159.9,212.5,162Z" fill="#fff"/>
      </g>
      <g id="shade_dark" data-name="shade dark">
        <path d="M60,67.7a139.8,139.8,0,0,0-18.8,36,164.3,164.3,0,0,0-7.9,34.9l9.8-2.4c7-1.6,15.1-3.2,24-4.7,6.5-25.9,23.3-82.8,51-99.3C96.4,33.6,76,46.1,60,67.7Z" fill="#7ba835"/>
        <path d="M263.8,131.2c-1.2,2.6-2.2,5.2-3.2,7.9l10.9-1.8,11.2-1.5c10.4-14.1,33.4-40.6,60.6-41.7A56.6,56.6,0,0,0,322,89.9C297.1,89.9,275.2,106.6,263.8,131.2Z" fill="#7ba835"/>
        <path d="M414.9,208.9l-1.2,3.6" fill="#7ba835"/>
      </g>
    </g>
    <path id="outline-2" data-name="outline" d="M60,67.7C77,44.7,99.1,32,122.3,32c16.8,0,33,6.7,47.1,19.1a101.7,101.7,0,0,1,15.2,16.6,136.2,136.2,0,0,1,19.5,38.4,157.4,157.4,0,0,1,5.8,23.2,490.8,490.8,0,0,0-99.7-3h-.9a451,451,0,0,0-66.2,9.8l-9.8,2.4a164.3,164.3,0,0,1,7.9-34.9A139.8,139.8,0,0,1,60,67.7Zm323.3,71.1c-43.2-8.4-84-5.6-111.8-1.5l-10.9,1.8c1-2.7,2-5.3,3.2-7.9,11.4-24.6,33.3-41.3,58.2-41.3,21.5,0,40.6,12.3,52.8,31.4A83.5,83.5,0,0,1,383.3,138.8Zm-96.8,28.9,7.2-.8a23.7,23.7,0,0,0-1,7c0,8.7,4.9,16.5,12.6,21.7a41.2,41.2,0,0,0,41.9,1.3c9-5.1,14.9-13.5,14.9-23h0a15.5,15.5,0,0,0-.3-3.1h0a15.9,15.9,0,0,0-.6-3c3.6.4,7.2,1,10.9,1.6s7.8,1.4,11.7,2.3l4.9,1.1c-.8,40.9-26.9,74.3-60,78.3a49.2,49.2,0,0,1-6.7.4c-31.6,0-58.2-26.8-65-62.7a101.9,101.9,0,0,1-1.7-15.8c4.7-1.1,10.7-2.2,17.8-3.3C277.2,168.9,281.7,168.3,286.5,167.7Zm-163.4,120h-.8a61.4,61.4,0,0,1-12.9-1.3l-.9-.2c-13.4-3-26.2-10.2-37.4-21.3A115.9,115.9,0,0,1,60,252.1a135.1,135.1,0,0,1-14.4-25.2A160.9,160.9,0,0,1,32.4,172a407.5,407.5,0,0,1,67.3-12.4c-.1.3-.3.7-.4,1.1a25.3,25.3,0,0,0-2,9.8c0,17.4,17.5,31.5,39,31.5,14.6,0,27.3-6.6,34-16.2a27.1,27.1,0,0,0,5-15.3,25.9,25.9,0,0,0-.8-6.3.4.4,0,0,1-.1-.3h0a31.3,31.3,0,0,0-2.4-6c13,.7,26.5,2,40.5,4.1-.4,34-10.1,65.6-27.5,89.5l-.4.6-.6.7C167.3,275,145.8,287.4,123.1,287.7ZM420.7,176c0-1.5,0-3.1.1-4.7v-.6c0-54.5-34-100-78.9-110.5l-2.2-.5c-2.5-.5-5-1-7.6-1.3s-6.7-.5-10.1-.5c-35,0-65.8,20.9-83.4,52.4-5.6-22.9-15.2-44-28.3-61.7a136.7,136.7,0,0,0-18.2-20.2l-.6-.6-1.1-.9C173.9,12.4,154.9,3.4,134.8.8h-.3A98.7,98.7,0,0,0,122.3,0h0c-25,0-48.7,9.6-68.7,27.4A136.1,136.1,0,0,0,34.3,48.6C12.2,78.5,0,118,0,159.9c0,4.7.2,9.5.5,14.2L.8,178c.1.8.1,1.6.2,2.3a194.9,194.9,0,0,0,10,46.2q1.5,4.4,3.3,8.7c2.1,4.9,4.6,10.1,7.5,15.5s6,10.8,9,15.5l1.1,1.5a41.5,41.5,0,0,0,2.4,3.4,138.9,138.9,0,0,0,23.4,24.8c19.1,15.5,41.3,23.8,64.6,23.8,21,0,41.1-6.7,58.8-19.4a132.5,132.5,0,0,0,29.2-29.2,170.4,170.4,0,0,0,24.4-47.9c16.6,35.8,49.5,60.2,87.3,60.2,34.2,0,64.4-19.9,82.2-50.2a117.9,117.9,0,0,0,10.7-24.3,138,138,0,0,0,3.9-16.2A164.5,164.5,0,0,0,420.7,176Z" fill="#212e3e"/>
  </g>
</svg>
