<svg xmlns="http://www.w3.org/2000/svg" viewBox="0 0 1400 450">
  <g id="ff">
    <g id="Layer_12" data-name="Layer 12">
      <g>
        <path d="M532.7,315.7c4.7,0,9.4,1,12.4,3.2l-3.8,10.4a13,13,0,0,0-7.6-2.5c-5.7,0-8.7,3.2-8.7,9.5v3.5h16.2v11H525.4v47.3H511.7V350.8H502v-11h9.7v-3.7C511.7,323.8,519.1,315.7,532.7,315.7Zm24.6,5.7c0-4.6,3.8-8.2,8.8-8.2s8.8,3.4,8.8,7.9a8.4,8.4,0,0,1-8.8,8.6C561.1,329.7,557.3,326.1,557.3,321.4Zm1.9,18H573v58.7H559.2Z" fill="#fff"/>
        <path d="M648.9,364.5v33.6H635.1V366.2c0-10.4-5.2-15.5-14-15.5s-16.3,5.9-16.3,17.7v29.7H591V339.4h13.1V347c4.5-5.4,11.7-8.3,20.2-8.3C638.4,338.7,648.9,346.7,648.9,364.5Z" fill="#fff"/>
        <path d="M715.5,363.7v34.4h-13V391c-3.3,5-9.6,7.9-18.4,7.9-13.5,0-21.9-7.4-21.9-17.6s6.6-17.5,24.4-17.5h15.2v-.9c0-8-4.9-12.7-14.7-12.7-6.6,0-13.4,2.2-17.8,5.8l-5.4-10c6.3-4.9,15.4-7.3,24.9-7.3C705.7,338.7,715.5,346.7,715.5,363.7Zm-13.7,16v-6.8H687.6c-9.4,0-11.9,3.5-11.9,7.8s4.2,8.2,11.2,8.2S699.5,385.8,701.8,379.7Z" fill="#fff"/>
        <path d="M791,364.5v33.6H777.2V366.2c0-10.4-5.1-15.5-13.9-15.5s-16.4,5.9-16.4,17.7v29.7H733.1V339.4h13.1V347c4.5-5.4,11.7-8.3,20.3-8.3C780.5,338.7,791,346.7,791,364.5Z" fill="#fff"/>
        <path d="M804.2,368.7c0-17.6,13.2-30,31.8-30,11.4,0,20.5,4.7,25.1,13.7l-10.6,6.1a16.6,16.6,0,0,0-14.6-8.1c-10.2,0-17.9,7-17.9,18.3s7.7,18.4,17.9,18.4a16.6,16.6,0,0,0,14.6-8.1l10.6,6.1c-4.6,8.8-13.7,13.8-25.1,13.8C817.4,398.9,804.2,386.3,804.2,368.7Z" fill="#fff"/>
        <path d="M927.1,373.1H881c1.6,8.6,8.8,14.1,19,14.1,6.6,0,11.8-2.1,15.9-6.4l7.4,8.5c-5.3,6.3-13.5,9.6-23.6,9.6-19.7,0-32.5-12.7-32.5-30.2s12.9-30,30.4-30,29.7,12,29.7,30.4C927.3,370.2,927.2,371.8,927.1,373.1ZM880.9,364h33.3c-1.1-8.5-7.6-14.3-16.6-14.3S882.2,355.4,880.9,364Z" fill="#fff"/>
      </g>
      <g>
        <path d="M511,296.5v-105H489.8V144.9H511V126.3a87.7,87.7,0,0,1,4.6-29.2,66.6,66.6,0,0,1,12.7-22.5A55.3,55.3,0,0,1,548,60.3a63.7,63.7,0,0,1,25.9-5.1c14.4,0,30.2,3.3,47.6,9.8l-10.4,47a98,98,0,0,0-11.9-3.3,54.3,54.3,0,0,0-11.2-1.3c-10,0-15,5.5-15,16.6v20.9h37.4v46.6H573v105Z" fill="#fff"/>
        <path d="M748.3,177.8a127.2,127.2,0,0,0-32.6,3.9c-9.7,2.6-17,7-21.8,13.1V296.5H632V125h56.7v32.6c6.1-11.5,13.6-20.4,22.6-26.6a50.8,50.8,0,0,1,29.2-9.3,51.8,51.8,0,0,1,7.8.4Z" fill="#fff"/>
        <path d="M850.7,299.7c-15.4,0-29-2.4-40.6-7.3a87.1,87.1,0,0,1-29.3-19.6,79.2,79.2,0,0,1-17.9-28.3,96.4,96.4,0,0,1,0-67.5,79.6,79.6,0,0,1,17.9-28.4,88.4,88.4,0,0,1,29.3-19.5c11.6-4.9,25.2-7.4,40.6-7.4s28.7,2.5,40.4,7.4a87.3,87.3,0,0,1,29.5,19.5,81.3,81.3,0,0,1,18,28.4,97.9,97.9,0,0,1,0,67.5,80.9,80.9,0,0,1-18,28.3,86.1,86.1,0,0,1-29.5,19.6C879.4,297.3,865.9,299.7,850.7,299.7Zm-30.3-89c0,11.6,2.8,20.6,8.5,27.1a27.5,27.5,0,0,0,21.8,9.8,27.9,27.9,0,0,0,21.9-9.8c5.6-6.5,8.4-15.5,8.4-27.1s-2.8-20.5-8.4-27a27.9,27.9,0,0,0-21.9-9.8,27.5,27.5,0,0,0-21.8,9.8C823.2,190.2,820.4,199.2,820.4,210.7Z" fill="#fff"/>
        <path d="M1032.3,296.5a68.5,68.5,0,0,1-30.5-6.7,70.5,70.5,0,0,1-23.6-18.3A83.7,83.7,0,0,1,963,244.3a103,103,0,0,1-5.4-33.9,104.5,104.5,0,0,1,5.9-35.5A83.5,83.5,0,0,1,980,146.8a77,77,0,0,1,25.2-18.4,78.1,78.1,0,0,1,32.3-6.7c12.4,0,23.3,2.5,32.6,7.4a55.4,55.4,0,0,1,22.2,21.3V125h53.8V280.8c0,13.5-2.5,25.7-7.5,36.5a79.3,79.3,0,0,1-21.2,27.8,99.8,99.8,0,0,1-32.9,17.7c-12.9,4.3-27.1,6.4-42.8,6.4-18.2,0-34.1-2.9-47.6-8.5a110.1,110.1,0,0,1-35.8-24.4l32.6-34a82.9,82.9,0,0,0,22.6,14.9,67.3,67.3,0,0,0,28.2,6,57.1,57.1,0,0,0,16.2-2.3,34.4,34.4,0,0,0,22.8-20.5c2.3-5.4,3.4-12,3.4-19.6V269.7a46.5,46.5,0,0,1-21.3,20.3A71.6,71.6,0,0,1,1032.3,296.5Zm22.2-48.9a30.5,30.5,0,0,0,16.4-4.4,48.6,48.6,0,0,0,13.2-13.2V199.3a41.7,41.7,0,0,0-13.5-18.6c-6-4.5-12.2-6.8-18.8-6.8a24.9,24.9,0,0,0-12.2,3.1,35.2,35.2,0,0,0-9.9,8.1,36,36,0,0,0-6.5,12.1,45.4,45.4,0,0,0-2.3,14.8c0,10.7,3.1,19.3,9.4,25.8S1044.7,247.6,1054.5,247.6Z" fill="#fff"/>
        <path d="M1261.8,299.7c-15,0-28.4-2.3-40.1-7a84.3,84.3,0,0,1-29.5-19,82.5,82.5,0,0,1-18.1-27.8,89.1,89.1,0,0,1-6.2-32.9,102.9,102.9,0,0,1,6-35.2,82,82,0,0,1,18-29c7.9-8.3,17.7-14.8,29.3-19.7s25.2-7.4,40.6-7.4,28.7,2.5,40.4,7.4a87.3,87.3,0,0,1,29.5,19.5,81,81,0,0,1,17.9,28.4,94,94,0,0,1,6.1,33.7c0,3.3-.2,6.6-.5,10a87.8,87.8,0,0,1-1.2,8.9H1233.8c.6,9.2,4,15.8,10.1,19.8a35.2,35.2,0,0,0,19.8,6,40.8,40.8,0,0,0,19.1-4.6c6-3,10-7.2,11.9-12.7l52.5,15q-10.5,20.6-32.1,33.6C1300.6,295.4,1282.9,299.7,1261.8,299.7Zm27.4-107.2c-1.1-8.3-4.2-14.8-9.2-19.6s-11.4-7.1-19.2-7.1-14.2,2.3-19.2,7.1-8.1,11.3-9.1,19.6Z" fill="#fff"/>
      </g>
    </g>
    <g id="Layer_13" data-name="Layer 13">
      <path d="M410,284c60.2-.9-9,152-9,152H44c-31.5-81.4-38.6-95.1-4-136l30-35,75-142C109.8,15.6,230-40.1,250,93c7.4-74.7,93-59.8,84,7,35.1,4.1,37,82,37,82l54,5Z" fill="#91c73e"/>
      <path d="M321,191c28.4,2.6,54.4,8.1,59,19,6.4,15.2-38.9,166.5-57,226,0,0,108.5-167,102-249l-54-5s.1-72-37-80C346.6,118.7,349.3,189.4,321,191Z" fill="#7ba835"/>
      <path d="M411,290c13.7,16.3,12.2,50.1-36,146h26S472.3,278.8,411,290Z" fill="#7ba835"/>
      <path d="M302,330c-2.8,37.3-42.9,96.9-50,106h17C304.2,396,305.6,351.1,302,330Z" fill="#7ba835"/>
      <path d="M205,436h25c-15.7-16.9-49.3-64-65-106C163.9,355.8,189.6,414.3,205,436Z" fill="#7ba835"/>
      <path d="M161,436C122.2,409.3,51,280,51,280c-26,42.8,79,156,79,156Z" fill="#9fd748"/>
      <path d="M44,436H63C9.1,348.1,30.3,318.5,48,310-4.1,308.9,8.5,376.6,44,436Z" fill="#9fd748"/>
      <path d="M44,283c115.1-71.8,263.9-115.1,381-96,7.5,62-66.6,195-103,249H130S43.9,348.1,44,283Z" fill="none" stroke="#212e3e" stroke-miterlimit="2" stroke-width="16"/>
      <path d="M47,303s-74.3,11-3,133H400s82.5-174.2-1-143" fill="none" stroke="#212e3e" stroke-miterlimit="2" stroke-width="16"/>
      <path d="M165,330c7.6,36.9,34.8,74.8,55,106h20c24-29.6,54-67.8,62-106,5.3,42.8-20,76.3-43,106H198C178.9,404.3,162.4,367.8,165,330Z" fill="#212e3e"/>
      <path d="M74,264c8.7-50.5,51.1-110,74-139,21-26.6,144.2-30.1,186-24,26.6,3.9,35.4,42.5,38,81" fill="none" stroke="#212e3e" stroke-miterlimit="10" stroke-width="16"/>
      <path id="tooth" d="M131,237c19.4-8.6,39-16.2,59-23-10.3-19.7-19.5-30-27-31s-28.6,5.6-32,11C122.3,207.6,131,237,131,237Z" fill="#fff" stroke="#212e3e" stroke-miterlimit="1" stroke-width="16"/>
      <path id="lid-dk-right" d="M324,60c-32.6-21.7-56,24-56,24l-17,4C251,58,285.9,22.2,324,60Z" fill="#7ba835"/>
      <path id="lid-dk-left" d="M205.1,17c-29.8,4.3-36.1,37.7-43.2,64.9A210.6,210.6,0,0,0,138,87.6C136.1,48.5,160.8,7.4,205.1,17Z" fill="#7ba835"/>
      <path d="M334.6,87l-83.3.8C245.2,158.1,341.7,157,334.6,87Z" fill="#fff"/>
      <path d="M245.7,80,138,85.1C137.5,184.8,252.1,181.4,245.7,80Z" fill="#fff"/>
      <ellipse cx="199" cy="93" rx="20" ry="16" fill="#212e3e"/>
      <ellipse cx="295.5" cy="95" rx="17.5" ry="14" fill="#212e3e"/>
      <ellipse cx="192" cy="88" rx="54" ry="73" fill="none" stroke="#212e3e" stroke-miterlimit="10" stroke-width="16"/>
      <ellipse cx="293" cy="93" rx="42" ry="49" fill="none" stroke="#212e3e" stroke-miterlimit="10" stroke-width="16"/>
      <path d="M138,88s58.3-19.4,112-4v5c24-8.5,60.6-8.4,85-1" fill="none" stroke="#212e3e" stroke-miterlimit="10" stroke-width="16"/>
    </g>
  </g>
</svg>
