<svg xmlns="http://www.w3.org/2000/svg" viewBox="0 0 1400 450">
  <g id="fff">
    <g id="Layer_19" data-name="Layer 19">
      <g>
        <path d="M522.1,384.8v3.5h16.2v11H522.6v47.3H508.8V399.3h-9.7v-11h9.7v-3.8c0-12.3,7.4-20.3,21-20.3,4.8,0,9.4,1,12.5,3.2l-3.9,10.3a13.7,13.7,0,0,0-7.6-2.4C525.1,375.3,522.1,378.5,522.1,384.8Z" fill="#91c73e"/>
        <path d="M541.8,417.2c0-17.6,13.2-30,31.3-30s31.3,12.4,31.3,30-13.1,30.2-31.3,30.2S541.8,434.8,541.8,417.2Zm48.7,0c0-11.2-7.4-18.4-17.4-18.4s-17.4,7.2-17.4,18.4,7.5,18.4,17.4,18.4S590.5,428.4,590.5,417.2Z" fill="#91c73e"/>
        <path d="M674.5,387.8v58.8H661.4v-7.5c-4.4,5.4-11.3,8.3-18.9,8.3-15.1,0-25.3-8.3-25.3-26V387.8h13.7v31.7c0,10.7,5.1,15.8,13.8,15.8s16-6,16-17.8V387.8Z" fill="#91c73e"/>
        <path d="M750.4,412.9v33.7H736.6V414.7c0-10.5-5.1-15.5-13.9-15.5s-16.4,5.9-16.4,17.7v29.7H692.5V387.8h13.1v7.6c4.5-5.4,11.7-8.2,20.2-8.2C739.9,387.2,750.4,395.2,750.4,412.9Z" fill="#91c73e"/>
        <path d="M825.9,365v81.6H812.7V439c-4.6,5.6-11.4,8.4-19.4,8.4-17.1,0-29.7-11.9-29.7-30.2s12.6-30,29.7-30c7.6,0,14.3,2.5,18.9,7.9V365Zm-13.5,52.2c0-11.2-7.6-18.4-17.5-18.4s-17.5,7.2-17.5,18.4,7.6,18.4,17.5,18.4S812.4,428.4,812.4,417.2Z" fill="#91c73e"/>
        <path d="M893.2,412.2v34.4h-13v-7.2c-3.3,5.1-9.7,8-18.5,8-13.4,0-21.9-7.4-21.9-17.6s6.6-17.5,24.4-17.5h15.2v-.9c0-8-4.8-12.8-14.6-12.8-6.6,0-13.4,2.2-17.8,5.9l-5.4-10.1c6.2-4.8,15.4-7.2,24.8-7.2C883.4,387.2,893.2,395.2,893.2,412.2Zm-13.8,16v-6.8H865.2c-9.3,0-11.9,3.5-11.9,7.8s4.2,8.1,11.3,8.1S877.1,434.3,879.4,428.2Z" fill="#91c73e"/>
        <path d="M946.1,443.4c-3.3,2.6-8.3,4-13.2,4-12.9,0-20.3-6.9-20.3-19.8V399.3h-9.7v-11h9.7V374.9h13.8v13.4h15.7v11H926.4v27.9c0,5.7,2.8,8.8,8.1,8.8a12,12,0,0,0,7.7-2.4Z" fill="#91c73e"/>
        <path d="M955.5,369.9c0-4.6,3.8-8.2,8.8-8.2s8.8,3.4,8.8,7.9a8.8,8.8,0,0,1-17.6.3Zm1.9,17.9h13.7v58.8H957.4Z" fill="#91c73e"/>
        <path d="M984.3,417.2c0-17.6,13.2-30,31.3-30s31.3,12.4,31.3,30-13.1,30.2-31.3,30.2S984.3,434.8,984.3,417.2Zm48.8,0c0-11.2-7.5-18.4-17.5-18.4s-17.4,7.2-17.4,18.4,7.5,18.4,17.4,18.4S1033.1,428.4,1033.1,417.2Z" fill="#91c73e"/>
        <path d="M1118,412.9v33.7h-13.8V414.7c0-10.5-5.1-15.5-13.9-15.5s-16.4,5.9-16.4,17.7v29.7h-13.8V387.8h13.1v7.6c4.5-5.4,11.7-8.2,20.3-8.2C1107.5,387.2,1118,395.2,1118,412.9Z" fill="#91c73e"/>
      </g>
      <g>
        <path d="M532.6,264.3c4.8,0,9.4,1,12.5,3.2l-3.9,10.3a13.7,13.7,0,0,0-7.6-2.4c-5.7,0-8.7,3.2-8.7,9.5v3.5h16.2v11H525.4v47.3H511.6V299.4H502v-11h9.6v-3.7C511.6,272.3,519,264.3,532.6,264.3Zm24.7,5.7c0-4.6,3.7-8.2,8.8-8.2s8.8,3.4,8.8,7.9a8.5,8.5,0,0,1-8.8,8.6C561,278.3,557.3,274.6,557.3,270Zm1.9,18h13.7v58.7H559.2Z" fill="#91c73e"/>
        <path d="M648.8,313v33.7H635.1V314.8c0-10.5-5.2-15.5-14-15.5s-16.4,5.9-16.4,17.7v29.7H590.9V288H604v7.5c4.5-5.3,11.7-8.2,20.3-8.2C638.4,287.3,648.8,295.3,648.8,313Z" fill="#91c73e"/>
        <path d="M715.5,312.3v34.4h-13v-7.2c-3.3,5.1-9.7,8-18.5,8-13.4,0-21.9-7.4-21.9-17.6s6.6-17.5,24.4-17.5h15.2v-.9c0-8-4.8-12.8-14.6-12.8-6.6,0-13.4,2.2-17.8,5.9l-5.4-10c6.2-4.9,15.4-7.3,24.8-7.3C705.7,287.3,715.5,295.3,715.5,312.3Zm-13.8,16v-6.8H687.5c-9.3,0-11.9,3.5-11.9,7.8s4.2,8.2,11.3,8.2S699.4,334.4,701.7,328.3Z" fill="#91c73e"/>
        <path d="M790.9,313v33.7H777.2V314.8c0-10.5-5.2-15.5-14-15.5s-16.4,5.9-16.4,17.7v29.7H733.1V288h13.1v7.5c4.5-5.3,11.6-8.2,20.2-8.2C780.5,287.3,790.9,295.3,790.9,313Z" fill="#91c73e"/>
        <path d="M804.1,317.3c0-17.6,13.2-30,31.8-30,11.5,0,20.6,4.7,25.1,13.6l-10.6,6.2a16.6,16.6,0,0,0-14.6-8.1c-10.1,0-17.8,7-17.8,18.3s7.7,18.4,17.8,18.4a16.6,16.6,0,0,0,14.6-8.1l10.6,6.1c-4.5,8.8-13.6,13.8-25.1,13.8C817.3,347.5,804.1,334.9,804.1,317.3Z" fill="#91c73e"/>
        <path d="M927,321.7H880.9c1.7,8.6,8.8,14.1,19,14.1,6.6,0,11.8-2.1,16-6.4l7.4,8.5c-5.3,6.3-13.6,9.6-23.7,9.6-19.7,0-32.4-12.7-32.4-30.2s12.8-30,30.3-30,29.7,12,29.7,30.4C927.2,318.8,927.1,320.4,927,321.7Zm-46.2-9.1h33.3c-1.1-8.5-7.6-14.3-16.6-14.3S882.1,304,880.8,312.6Z" fill="#91c73e"/>
      </g>
      <g>
        <path d="M511,245.1v-105H489.8V93.5H511V74.9a89.9,89.9,0,0,1,4.5-29.2,68.4,68.4,0,0,1,12.7-22.5A54.5,54.5,0,0,1,548,8.9a63.3,63.3,0,0,1,25.9-5.1c14.3,0,30.2,3.3,47.6,9.8L611,60.5a93.4,93.4,0,0,0-11.9-3.2A53.5,53.5,0,0,0,587.9,56c-10,0-15,5.5-15,16.6V93.5h37.5v46.6H572.9v105Z" fill="#91c73e"/>
        <path d="M748.3,126.4a126.7,126.7,0,0,0-32.6,3.9c-9.8,2.6-17.1,7-21.9,13V245.1H631.9V73.6h56.7v32.6c6.1-11.5,13.7-20.4,22.7-26.6a50.4,50.4,0,0,1,29.2-9.3,59.2,59.2,0,0,1,7.8.3Z" fill="#91c73e"/>
        <path d="M850.7,248.3c-15.5,0-29-2.4-40.6-7.3a87.6,87.6,0,0,1-29.4-19.6,80.6,80.6,0,0,1-17.9-28.3,97.9,97.9,0,0,1,0-67.5,81,81,0,0,1,17.9-28.4,87.4,87.4,0,0,1,29.4-19.5c11.6-4.9,25.1-7.4,40.6-7.4s28.6,2.5,40.4,7.4a87.8,87.8,0,0,1,29.5,19.5,81,81,0,0,1,17.9,28.4,97.9,97.9,0,0,1,0,67.5,80.6,80.6,0,0,1-17.9,28.3A88,88,0,0,1,891.1,241C879.3,245.9,865.9,248.3,850.7,248.3Zm-30.4-89c0,11.5,2.9,20.6,8.5,27.1a29.3,29.3,0,0,0,43.7,0c5.6-6.5,8.5-15.6,8.5-27.1s-2.9-20.5-8.5-27-12.9-9.8-21.8-9.8-16.2,3.2-21.9,9.8S820.3,147.8,820.3,159.3Z" fill="#91c73e"/>
        <path d="M1032.2,245.1a69.5,69.5,0,0,1-30.4-6.7,71.2,71.2,0,0,1-23.7-18.3A82.7,82.7,0,0,1,963,192.9a103,103,0,0,1-5.4-33.9,104.1,104.1,0,0,1,5.8-35.5,84.2,84.2,0,0,1,16.5-28.1,76.3,76.3,0,0,1,57.5-25.1c12.4,0,23.3,2.5,32.6,7.4A53.6,53.6,0,0,1,1092.2,99V73.6H1146V229.4c0,13.5-2.5,25.6-7.5,36.5a78.1,78.1,0,0,1-21.2,27.7,99,99,0,0,1-32.9,17.8,136.7,136.7,0,0,1-42.7,6.4c-18.3,0-34.1-2.9-47.6-8.5a109.3,109.3,0,0,1-35.9-24.5l32.6-33.9a85.9,85.9,0,0,0,22.7,14.9,67.3,67.3,0,0,0,28.2,6,57,57,0,0,0,16.1-2.3,38.1,38.1,0,0,0,13.6-7.3,34.4,34.4,0,0,0,9.2-13.2,50.5,50.5,0,0,0,3.5-19.6V218.3a46,46,0,0,1-21.4,20.2A69.9,69.9,0,0,1,1032.2,245.1Zm22.2-48.9a30.8,30.8,0,0,0,16.5-4.4,51.5,51.5,0,0,0,13.2-13.2V147.9a42.6,42.6,0,0,0-13.6-18.6c-5.9-4.5-12.2-6.8-18.7-6.8a24.6,24.6,0,0,0-12.2,3.1,34,34,0,0,0-10,8.1,36,36,0,0,0-6.5,12.1,48.2,48.2,0,0,0-2.3,14.8c0,10.7,3.2,19.3,9.5,25.8S1044.6,196.2,1054.4,196.2Z" fill="#91c73e"/>
        <path d="M1261.7,248.3c-15,0-28.3-2.3-40.1-7a85.5,85.5,0,0,1-29.5-19.1,82.6,82.6,0,0,1-18.1-27.7,89.1,89.1,0,0,1-6.2-32.9,102.9,102.9,0,0,1,6.1-35.2,80.9,80.9,0,0,1,17.9-29,84.5,84.5,0,0,1,29.3-19.7c11.7-4.9,25.2-7.4,40.6-7.4s28.7,2.5,40.5,7.4a87.8,87.8,0,0,1,29.5,19.5,81,81,0,0,1,17.9,28.4,95.7,95.7,0,0,1,6,33.7,84.8,84.8,0,0,1-.5,10c-.3,3.3-.7,6.3-1.1,8.9H1233.7c.6,9.2,4,15.7,10.1,19.7a34.8,34.8,0,0,0,19.9,6.1,41.1,41.1,0,0,0,19.1-4.6c5.9-3,9.9-7.3,11.9-12.7l52.4,15q-10.3,20.6-32.1,33.6T1261.7,248.3Zm27.4-107.2c-1.1-8.3-4.1-14.8-9.1-19.6s-11.4-7.2-19.2-7.2-14.3,2.4-19.3,7.2-8,11.3-9.1,19.6Z" fill="#91c73e"/>
      </g>
    </g>
    <g id="Layer_20" data-name="Layer 20">
      <path d="M410,284c60.2-.9-9,152-9,152H44c-31.5-81.4-38.6-95.1-4-136l30-35,75-142C109.8,15.6,230-40.1,250,93c7.4-74.7,93-59.8,84,7,35.1,4.1,37,82,37,82l54,5Z" fill="#91c73e"/>
      <path d="M321,191c28.4,2.6,54.4,8.1,59,19,6.4,15.2-38.9,166.5-57,226,0,0,108.5-167,102-249l-54-5s.1-72-37-80C346.6,118.7,349.3,189.4,321,191Z" fill="#7ba835"/>
      <path d="M411,290c13.7,16.3,12.2,50.1-36,146h26S472.3,278.8,411,290Z" fill="#7ba835"/>
      <path d="M302,330c-2.8,37.3-42.9,96.9-50,106h17C304.2,396,305.6,351.1,302,330Z" fill="#7ba835"/>
      <path d="M205,436h25c-15.7-16.9-49.3-64-65-106C163.9,355.8,189.6,414.3,205,436Z" fill="#7ba835"/>
      <path d="M161,436C122.2,409.3,51,280,51,280c-26,42.8,79,156,79,156Z" fill="#9fd748"/>
      <path d="M44,436H63C9.1,348.1,30.3,318.5,48,310-4.1,308.9,8.5,376.6,44,436Z" fill="#9fd748"/>
      <path d="M44,283c115.1-71.8,263.9-115.1,381-96,7.5,62-66.6,195-103,249H130S43.9,348.1,44,283Z" fill="none" stroke="#212e3e" stroke-miterlimit="2" stroke-width="16"/>
      <path d="M47,303s-74.3,11-3,133H400s82.5-174.2-1-143" fill="none" stroke="#212e3e" stroke-miterlimit="2" stroke-width="16"/>
      <path d="M165,330c7.6,36.9,34.8,74.8,55,106h20c24-29.6,54-67.8,62-106,5.3,42.8-20,76.3-43,106H198C178.9,404.3,162.4,367.8,165,330Z" fill="#212e3e"/>
      <path d="M74,264c8.7-50.5,51.1-110,74-139,21-26.6,144.2-30.1,186-24,26.6,3.9,35.4,42.5,38,81" fill="none" stroke="#212e3e" stroke-miterlimit="10" stroke-width="16"/>
      <path id="tooth" d="M131,237c19.4-8.6,39-16.2,59-23-10.3-19.7-19.5-30-27-31s-28.6,5.6-32,11C122.3,207.6,131,237,131,237Z" fill="#fff" stroke="#212e3e" stroke-miterlimit="1" stroke-width="16"/>
      <path id="lid-dk-right" d="M324,60c-32.6-21.7-56,24-56,24l-17,4C251,58,285.9,22.2,324,60Z" fill="#7ba835"/>
      <path id="lid-dk-left" d="M205.1,17c-29.8,4.3-36.1,37.7-43.2,64.9A210.6,210.6,0,0,0,138,87.6C136.1,48.5,160.8,7.4,205.1,17Z" fill="#7ba835"/>
      <path d="M334.6,87l-83.3.8C245.2,158.1,341.7,157,334.6,87Z" fill="#fff"/>
      <path d="M245.7,80,138,85.1C137.5,184.8,252.1,181.4,245.7,80Z" fill="#fff"/>
      <ellipse cx="199" cy="93" rx="20" ry="16" fill="#212e3e"/>
      <ellipse cx="295.5" cy="95" rx="17.5" ry="14" fill="#212e3e"/>
      <ellipse cx="192" cy="88" rx="54" ry="73" fill="none" stroke="#212e3e" stroke-miterlimit="10" stroke-width="16"/>
      <ellipse cx="293" cy="93" rx="42" ry="49" fill="none" stroke="#212e3e" stroke-miterlimit="10" stroke-width="16"/>
      <path d="M138,88s58.3-19.4,112-4v5c24-8.5,60.6-8.4,85-1" fill="none" stroke="#212e3e" stroke-miterlimit="10" stroke-width="16"/>
    </g>
  </g>
</svg>
