<svg xmlns="http://www.w3.org/2000/svg" viewBox="0 0 450 450">
  <g id="froge">
    <g id="based">
      <path d="M410,284c60.2-.9-9,152-9,152H44c-31.5-81.4-38.6-95.1-4-136l30-35,75-142C109.8,15.6,230-40.1,250,93c7.4-74.7,93-59.8,84,7,35.1,4.1,37,82,37,82l54,5Z" fill="#91c73e"/>
    </g>
    <g id="body-dk">
      <path d="M321,191c28.4,2.6,54.4,8.1,59,19,6.4,15.2-38.9,166.5-57,226,0,0,108.5-167,102-249l-54-5s.1-72-37-80C346.6,118.7,349.3,189.4,321,191Z" fill="#7ba835"/>
      <path d="M411,290c13.7,16.3,12.2,50.1-36,146h26S472.3,278.8,411,290Z" fill="#7ba835"/>
      <path d="M302,330c-2.8,37.3-42.9,96.9-50,106h17C304.2,396,305.6,351.1,302,330Z" fill="#7ba835"/>
      <path d="M205,436h25c-15.7-16.9-49.3-64-65-106C163.9,355.8,189.6,414.3,205,436Z" fill="#7ba835"/>
    </g>
    <g id="body-lt">
      <path d="M161,436C122.2,409.3,51,280,51,280c-26,42.8,79,156,79,156Z" fill="#9fd748"/>
      <path d="M44,436H63C9.1,348.1,30.3,318.5,48,310-4.1,308.9,8.5,376.6,44,436Z" fill="#9fd748"/>
    </g>
    <g id="outline">
      <path d="M44,283c115.1-71.8,263.9-115.1,381-96,7.5,62-66.6,195-103,249H130S43.9,348.1,44,283Z" fill="none" stroke="#212e3e" stroke-miterlimit="2" stroke-width="16"/>
      <path d="M47,303s-74.3,11-3,133H400s82.5-174.2-1-143" fill="none" stroke="#212e3e" stroke-miterlimit="2" stroke-width="16"/>
      <path d="M165,330c7.6,36.9,34.8,74.8,55,106h20c24-29.6,54-67.8,62-106,5.3,42.8-20,76.3-43,106H198C178.9,404.3,162.4,367.8,165,330Z" fill="#212e3e"/>
      <path d="M74,264c8.7-50.5,51.1-110,74-139,21-26.6,144.2-30.1,186-24,26.6,3.9,35.4,42.5,38,81" fill="none" stroke="#212e3e" stroke-miterlimit="10" stroke-width="16"/>
      <path id="tooth" d="M131,237c19.4-8.6,39-16.2,59-23-10.3-19.7-19.5-30-27-31s-28.6,5.6-32,11C122.3,207.6,131,237,131,237Z" fill="#fff" stroke="#212e3e" stroke-miterlimit="1" stroke-width="16"/>
    </g>
    <g id="eye-lids-dk">
      <path id="lid-dk-right" d="M324,60c-32.6-21.7-56,24-56,24l-17,4C251,58,285.9,22.2,324,60Z" fill="#7ba835"/>
      <path id="lid-dk-left" d="M205.1,17c-29.8,4.3-36.1,37.7-43.2,64.9A210.6,210.6,0,0,0,138,87.6C136.1,48.5,160.8,7.4,205.1,17Z" fill="#7ba835"/>
    </g>
    <g id="eye-whites">
      <path d="M334.6,87l-83.3.8C245.2,158.1,341.7,157,334.6,87Z" fill="#fff"/>
      <path d="M245.7,80,138,85.1C137.5,184.8,252.1,181.4,245.7,80Z" fill="#fff"/>
    </g>
    <g id="eye-pupils">
      <ellipse cx="199" cy="93" rx="20" ry="16" fill="#212e3e"/>
      <ellipse cx="295.5" cy="95" rx="17.5" ry="14" fill="#212e3e"/>
    </g>
    <g id="outline-eyes">
      <ellipse cx="192" cy="88" rx="54" ry="73" fill="none" stroke="#212e3e" stroke-miterlimit="10" stroke-width="16"/>
      <ellipse cx="293" cy="93" rx="42" ry="49" fill="none" stroke="#212e3e" stroke-miterlimit="10" stroke-width="16"/>
      <path d="M138,88s58.3-19.4,112-4v5c24-8.5,60.6-8.4,85-1" fill="none" stroke="#212e3e" stroke-miterlimit="10" stroke-width="16"/>
    </g>
  </g>
</svg>
