<svg xmlns="http://www.w3.org/2000/svg" viewBox="0 0 398.4 460">
  <g id="hexatoken">
    <g>
      <g>
        <polygon points="347.7 144.3 199.2 58.5 50.7 144.3 50.7 315.7 199.2 401.5 347.7 315.7 347.7 144.3" fill="#91c73e"/>
        <path d="M199.2,460,0,345V115L199.2,0,398.4,115V345ZM30.1,327.6l169.1,97.6,169.1-97.6V132.4L199.2,34.8,30.1,132.4Z" fill="#212e3e"/>
      </g>
      <g>
        <g id="shaded_bits" data-name="shaded bits">
          <g id="shade_primary" data-name="shade primary">
            <path d="M179.6,160c9.6,13,16.2,29.2,19.2,46.8-60.5-8.1-109.4.8-134,7,2.4-20.3,9.4-39,20.3-53.8,12.9-17.4,29.7-27,47.2-27S166.7,142.6,179.6,160Z" fill="#91c73e"/>
            <path d="M283.9,176.9c20.8,0,38.7,15.3,46.5,37.1-37.4-7.2-72.3-3.5-93.1.3C245,192.3,263,176.9,283.9,176.9Z" fill="#91c73e"/>
          </g>
          <g id="shade_white" data-name="shade white">
            <path d="M313.6,235.9a195.7,195.7,0,0,1,20.9,3.8c-.7,33.1-23.1,59.8-50.6,59.8s-49.9-26.6-50.6-59.6a226.8,226.8,0,0,1,29.1-4.5,18.4,18.4,0,0,0-.8,5.3c0,11.7,11.8,21.2,26.3,21.2s26.4-9.5,26.4-21.2A18.5,18.5,0,0,0,313.6,235.9Z" fill="#999"/>
            <path d="M200.8,231.6c-.3,26-7.8,50.2-21.2,68.4s-29.7,27-47.3,27S98,317.4,85.1,300s-19.4-37.7-20.9-60.8a306.7,306.7,0,0,1,51-9.4,18.9,18.9,0,0,0-1.8,8.2c0,13.2,13.2,23.9,29.6,23.9s29.5-10.7,29.5-23.9a19.7,19.7,0,0,0-2.4-9.5C179.9,229,190.2,230,200.8,231.6Z" fill="#999"/>
          </g>
          <g id="shade_dark" data-name="shade dark">
            <path d="M85.1,160a104.8,104.8,0,0,0-14.3,27.4,125.3,125.3,0,0,0-6,26.4l7.5-1.8c5.3-1.2,11.4-2.4,18.2-3.5,4.9-19.7,17.7-62.9,38.6-75.4C112.7,134.2,97.2,143.6,85.1,160Z" fill="#7ba835"/>
            <path d="M239.7,208.3a53.6,53.6,0,0,0-2.4,6l8.2-1.4,8.6-1.1c7.9-10.8,25.3-30.8,46-31.7a42.2,42.2,0,0,0-16.2-3.2C265,176.9,248.4,189.6,239.7,208.3Z" fill="#7ba835"/>
            <path d="M354.4,267.2c-.3.9-.6,1.8-1,2.7" fill="#7ba835"/>
          </g>
        </g>
        <path id="outline-2" data-name="outline" d="M85.1,160c12.9-17.4,29.7-27,47.2-27,12.8,0,25.1,5.1,35.8,14.5A77.2,77.2,0,0,1,179.6,160a102.9,102.9,0,0,1,14.8,29.2,110.5,110.5,0,0,1,4.4,17.6,372.3,372.3,0,0,0-75.6-2.2h-.7A365.1,365.1,0,0,0,72.3,212l-7.5,1.8a125.3,125.3,0,0,1,6-26.4A104.8,104.8,0,0,1,85.1,160Zm245.3,54c-32.8-6.3-63.7-4.2-84.9-1.1l-8.2,1.4a53.6,53.6,0,0,1,2.4-6c8.7-18.7,25.3-31.4,44.2-31.4,16.3,0,30.8,9.3,40,23.8A65.7,65.7,0,0,1,330.4,214ZM257,235.9l5.4-.5a18.4,18.4,0,0,0-.8,5.3c0,6.6,3.8,12.5,9.6,16.4a31.7,31.7,0,0,0,31.8,1c6.8-3.9,11.3-10.2,11.3-17.4h0a17.9,17.9,0,0,0-.2-2.3h0a18.9,18.9,0,0,0-.5-2.3l8.3,1.3c2.9.5,5.9,1,8.8,1.7l3.8.8c-.6,31-20.4,56.4-45.5,59.5a43.6,43.6,0,0,1-5.1.3c-24,0-44.2-20.4-49.3-47.6a67.8,67.8,0,0,1-1.3-12c3.6-.8,8.1-1.7,13.5-2.6ZM133,327h-.7a45,45,0,0,1-9.7-1l-.7-.2c-10.2-2.2-19.9-7.7-28.4-16.1a79.1,79.1,0,0,1-8.4-9.7,102.2,102.2,0,0,1-11-19.1,125.6,125.6,0,0,1-9.9-41.7,306.7,306.7,0,0,1,51-9.4l-.3.8a18.8,18.8,0,0,0-1.5,7.4c0,13.2,13.2,23.9,29.6,23.9,11.1,0,20.7-4.9,25.8-12.2a20.3,20.3,0,0,0,3.7-11.7,18.4,18.4,0,0,0-.6-4.7v-.2h0a19.2,19.2,0,0,0-1.8-4.5c9.8.5,20.1,1.5,30.7,3.1-.3,25.8-7.7,49.8-20.9,67.9l-.3.5-.4.5C166.5,317.4,150.2,326.8,133,327Zm225.7-84.7c.1-1.2.1-2.4.1-3.6v-.5c0-41.3-25.7-75.9-59.8-83.9l-1.7-.3-5.8-1a63.4,63.4,0,0,0-7.6-.4c-26.6,0-50,15.9-63.3,39.8-4.3-17.4-11.5-33.4-21.5-46.8a97.7,97.7,0,0,0-13.8-15.4l-.4-.4-.9-.7c-12.5-11-26.9-17.8-42.2-19.8h-.2a70.3,70.3,0,0,0-9.3-.6h0c-18.9,0-36.9,7.3-52.1,20.8a109.1,109.1,0,0,0-14.7,16.1C48.8,168.3,39.6,198.3,39.6,230q0,5.4.3,10.8c.1,1,.2,2,.2,3s.1,1.1.2,1.7a148.3,148.3,0,0,0,7.6,35c.8,2.3,1.6,4.5,2.5,6.6,1.6,3.8,3.5,7.7,5.7,11.8s4.6,8.2,6.8,11.8l.8,1.1,1.8,2.6a103.3,103.3,0,0,0,17.8,18.8c14.6,11.8,31.4,18.1,49,18.1,16,0,31.2-5.1,44.7-14.8a100.6,100.6,0,0,0,22.1-22.1,126.9,126.9,0,0,0,18.5-36.3c12.6,27.1,37.6,45.7,66.3,45.7,26,0,48.9-15.2,62.3-38.2a89.7,89.7,0,0,0,8.2-18.4,101.9,101.9,0,0,0,2.9-12.3A107.6,107.6,0,0,0,358.7,242.3Z" fill="#212e3e"/>
      </g>
    </g>
  </g>
</svg>
