<svg xmlns="http://www.w3.org/2000/svg" viewBox="0 0 460 450">
  <g id="base">
    <path d="M402.81,293.57c83.5-31.16,1.71,142.47,1.71,142.47H48c-71.34-122,2.46-132.63,2.46-132.63h0L48,282.74,78.16,265h0c12.5-69.71,72.08-137.77,72.08-137.77-45-98.06,81.39-174.56,102.16-33.94,7.36-74.74,94.57-58,85.61,8.79,35.05,4.08,37.05,80.43,37.05,80.43L428.35,187S436.44,220.93,402.81,293.57Z" fill="#91c73e"/>
  </g>
  <g id="body-dk">
    <path d="M324.72,191.42c28.36,2.6,53.88,8,58.49,19,6.4,15.23-38.73,166.2-56.8,225.67,0,0,108.4-167,101.94-249l-53.29-4.52s0-72.38-37.05-80.43C350.58,118.76,353,189.83,324.72,191.42Z" fill="#7ba835"/>
    <path d="M415.17,290c13.72,16.34,11.94,50.08-36.22,146h25.57S475.83,289.65,415.17,290Z" fill="#7ba835"/>
    <path d="M305.18,333.17C302.33,370.46,262.52,427,255.39,436h17.43C308,396,308.74,354.27,305.18,333.17Z" fill="#7ba835"/>
    <path d="M208.82,436h20c-15.08-18.76-57.34-97.6-60-105C167.74,356.83,193.44,414.33,208.82,436Z" fill="#7ba835"/>
  </g>
  <g id="body-lt">
    <path d="M164.85,436c-38.78-26.74-110-157-110-157-26,42.79,78.35,157,78.35,157Z" fill="#9fd748"/>
    <path d="M47.82,436h19c-53.95-87.9-32.69-117.51-15-126C-.27,308.91,12.29,376.62,47.82,436Z" fill="#9fd748"/>
  </g>
  <g id="outline">
    <path d="M48,283c115.13-71.77,263.21-115.15,380.33-96,7.48,62-66.12,195-102.53,249H133.22S47.92,348.11,48,283Z" fill="none" stroke="#212e3e" stroke-miterlimit="10" stroke-width="16"/>
    <path d="M50.82,303s-74.34,11-3,133h356.7s81.8-173.66-1.7-142.5" fill="none" stroke="#212e3e" stroke-miterlimit="10" stroke-width="16"/>
    <path d="M168.82,331c1.49,9.4,4.68,18.33,8.09,27.13A315.82,315.82,0,0,0,195.25,396c6.76,12.06,14.43,24.25,22.12,35.77l-6.55-3.56c13.57-.23,28.5-.22,42.08-.05L247,430.89c6.16-7.06,12.4-14.94,18.09-22.42,11.59-15.42,22.57-31.44,31-48.83,4.14-8.71,7.62-17.79,9.17-27.65,2.59,20.23-5,40.41-13.5,58.4a266.07,266.07,0,0,1-35.08,53.43c-16.41.32-33.83.25-50.25-.05-11.05-17.54-21-36.06-28.13-55.58-5-13.72-8.78-28-9.84-42.61a63.67,63.67,0,0,1,.39-14.54Z" fill="#212e3e"/>
    <path d="M77.82,264.75c8.68-50.54,51.08-110.52,74-139.55,21-26.62,143.75-29.57,185.59-23.51,26.64,3.86,35.07,42,37.65,80.51" fill="none" stroke="#212e3e" stroke-miterlimit="10" stroke-width="16"/>
    <ellipse cx="195.57" cy="87.88" rx="53.88" ry="72.82" fill="none" stroke="#212e3e" stroke-miterlimit="10" stroke-width="16"/>
    <ellipse cx="296.75" cy="93.3" rx="41.94" ry="48.99" fill="none" stroke="#212e3e" stroke-miterlimit="10" stroke-width="16"/>
    <path id="tooth" d="M134.45,237c19.37-8.58,39.15-16.3,59.12-23.06-10.35-19.67-19.15-29.4-26.66-30.43-7.81-1.06-28.47,5.49-31.9,10.88C126.35,208,134.45,237,134.45,237Z" fill="#fff" stroke="#212e3e" stroke-miterlimit="10" stroke-width="16"/>
  </g>
  <g id="eye-lids-dk">
    <path id="lid-dk-right" d="M327.41,59.88c-32.64-21.74-55.75,24.69-55.75,24.69L255,88.64C255,58.64,289.3,22.06,327.41,59.88Z" fill="#7ba835"/>
    <path id="lid-dk-left" d="M208.74,17.26C179,21.59,172.67,54.91,165.56,82.12a201.78,201.78,0,0,0-23.88,5.76C139.7,48.74,164.46,7.67,208.74,17.26Z" fill="#7ba835"/>
  </g>
  <g id="eye-whites">
    <path d="M338.43,87.88c-24-7.25-59.4-7.36-83.43.76-2.62,27.8,17.06,54,41.75,53.65C321.7,142.7,341.5,115.79,338.43,87.88Z" fill="#fff"/>
    <path d="M249.31,82.83c-52.44-13.14-107.63,5-107.63,5,0,40.22,24.13,72.82,53.89,72.82C226.79,161.29,252,123.14,249.31,82.83Z" fill="#fff"/>
  </g>
  <g id="eye-pupils">
    <ellipse cx="202.66" cy="93.15" rx="19.76" ry="16.05" fill="#212e3e"/>
    <ellipse cx="299.9" cy="94.99" rx="17.82" ry="14.21" fill="#212e3e"/>
  </g>
  <g id="outline-eyes">
    <g>
      <ellipse cx="195.57" cy="87.88" rx="53.88" ry="72.82" fill="none" stroke="#212e3e" stroke-miterlimit="10" stroke-width="16"/>
      <ellipse cx="296.75" cy="93.3" rx="41.94" ry="48.99" fill="none" stroke="#212e3e" stroke-miterlimit="10" stroke-width="16"/>
      <path d="M141.68,87.88S200.08,68.63,253.82,84v5c24-8.53,60.2-8.53,84.62-1.16" fill="none" stroke="#212e3e" stroke-miterlimit="10" stroke-width="16"/>
    </g>
  </g>
</svg>
