<svg xmlns="http://www.w3.org/2000/svg" viewBox="0 0 350 490">
  <g id="nofx">
    <g id="base">
      <rect x="0.5" y="0.5" width="349" height="489" rx="15.5" fill="#121212"/>
      <path d="M334,1a15,15,0,0,1,15,15V474a15,15,0,0,1-15,15H16A15,15,0,0,1,1,474V16A15,15,0,0,1,16,1H334m0-1H16A16,16,0,0,0,0,16V474a16,16,0,0,0,16,16H334a16,16,0,0,0,16-16V16A16,16,0,0,0,334,0Z"/>
    </g>
    <path id="accentBG" d="M22,14H328a8,8,0,0,1,8,8V408a36,36,0,0,1-36,36H50a36,36,0,0,1-36-36V22a8,8,0,0,1,8-8Z" fill="#3e6549" stroke="#303b2a" stroke-miterlimit="10"/>
    <path id="plateBase" d="M23.63,454.06V304.63c-1.72-1.83-5-6.45-5-15.05s3.28-13.22,5-15.05V52.63c-1.72-1.83-5-6.45-5-15.05,0-11.38,5.76-15.8,6-16l.67-.5H324.72l.67.5c.24.18,6,4.6,6,16,0,8.6-3.27,13.22-5,15.05V274.54c1.71,1.82,5,6.45,5,15s-3.27,13.22-5,15.05V454.06Z" fill="#8eb936"/>
    <rect id="descPlate" x="26.57" y="307" width="296.85" height="144" fill="#b3b3b3"/>
    <path id="typePlate" d="M26.7,303.21s-5-3.63-5-13.63,5-13.63,5-13.63H323.3s5,3.63,5,13.63-5,13.63-5,13.63Z" fill="#b3b3b3"/>
    <rect id="artPlate" x="26.57" y="54.94" width="296.85" height="217.14" fill="#1a1a1a"/>
    <path id="powerPlate" d="M324.68,462.32c6.46-4.62,6.41-21.71,0-26.26H277.5c-6.4,4.55-6.46,21.64,0,26.26Z" fill="#959a8f" stroke="#ccc" stroke-miterlimit="10" stroke-width="3"/>
    <path id="typePlate-2" d="M26.7,51.37s-5-3.69-5-13.88,5-13.89,5-13.89H323.3s5,3.7,5,13.89-5,13.88-5,13.88Z" fill="#b3b3b3"/>
  </g>
</svg>
